<?xml version="1.0" encoding="UTF-8" standalone="no"?>
<!-- Created with Inkscape (http://www.inkscape.org/) -->

<svg
   width="1000.0001"
   height="1000.0001"
   viewBox="0 0 264.58335 264.58335"
   version="1.1"
   id="svg1"
   xml:space="preserve"
   xmlns:xlink="http://www.w3.org/1999/xlink"
   xmlns="http://www.w3.org/2000/svg"
   xmlns:svg="http://www.w3.org/2000/svg"><defs
     id="defs1" /><g
     id="layer1"><rect
       style="display:none;fill:#000000;fill-opacity:1;stroke:#000000;stroke-width:1.32292;stroke-linecap:round;stroke-linejoin:round;stroke-dasharray:none;stroke-opacity:1;paint-order:fill markers stroke"
       id="rect4"
       width="264.58334"
       height="264.58334"
       x="-6.7529295e-06"
       y="-6.7529295e-06"
       ry="53.705997" /><image
       width="270.93332"
       height="270.93332"
       preserveAspectRatio="none"
       xlink:href="../PNG/Isotipo_NB_1024_1024_T.png"
       id="image1-5"
       x="-3.1749945"
       y="-3.1749945"
       style="display:none" /><image
       width="264.66504"
       height="193.84648"
       preserveAspectRatio="none"
       xlink:href="file:///D:/Godot/Engine/isotipo_nightbitgames.png"
       id="image1"
       x="-0.040854532"
       y="35.368423"
       style="display:none" /><g
       id="g11"
       transform="matrix(1.4373927,0,0,1.4373927,-57.863403,-91.230761)"
       style="fill:#ffffff"><g
         id="g4"
         transform="matrix(0.93105507,0,0,0.93105507,10.106922,27.664736)"
         style="display:inline;fill:#ffffff"><path
           id="path1"
           style="display:inline;opacity:1;fill:#ffffff;stroke:none;stroke-width:1.32292;stroke-linecap:round;stroke-linejoin:round;stroke-dasharray:none;stroke-opacity:1;paint-order:fill markers stroke"
           d="m 132.64978,52.083642 a 87.102112,85.223869 0 0 0 -87.102173,85.223738 87.102112,85.223869 0 0 0 87.102173,85.22374 87.102112,85.223869 0 0 0 84.26773,-64.33303 75.637703,73.938583 0 0 1 -70.29545,47.13666 75.637703,73.938583 0 0 1 -75.637763,-73.93864 75.637703,73.938583 0 0 1 75.637763,-73.938636 75.637703,73.938583 0 0 1 28.4334,5.43481 87.102112,85.223869 0 0 0 -42.40568,-10.808642 z" /><path
           style="display:inline;opacity:1;fill:#ffffff;fill-opacity:1;stroke:#ffffff;stroke-width:1.32292;stroke-linecap:round;stroke-linejoin:round;stroke-dasharray:none;stroke-opacity:1;paint-order:fill markers stroke"
           d="m 96.265464,170.49121 h 14.186486 v -41.67282 l 41.86282,41.86281 h 27.04299 c 13.9445,-3.26495 31.40903,-26.30356 6.71325,-40.46949 17.41656,-12.14396 9.20379,-32.077034 -9.88292,-36.88357 h -43.82307 v 28.14368 l 15.19981,15.19981 V 106.652 h 27.23299 c 11.74762,6.68212 5.42921,15.02244 0,18.36644 h -16.08647 v 12.91984 h 16.71979 c 17.20923,8.15983 4.56264,19.63813 0,19.63309 H 158.33136 L 96.392131,95.632139 Z"
           id="path4" /></g><text
         xml:space="preserve"
         style="font-style:normal;font-variant:normal;font-weight:600;font-stretch:normal;font-size:29.4008px;line-height:0;font-family:Kanit;-inkscape-font-specification:'Kanit Semi-Bold';text-align:center;letter-spacing:0px;word-spacing:0px;writing-mode:lr-tb;direction:ltr;text-anchor:middle;display:none;fill:#ffffff;fill-opacity:1;stroke:none;stroke-width:4.16751;stroke-linecap:round;stroke-linejoin:round;stroke-dasharray:none;stroke-opacity:1;paint-order:fill markers stroke"
         x="131.99767"
         y="253.32265"
         id="text10"><tspan
           style="font-style:normal;font-variant:normal;font-weight:600;font-stretch:normal;font-family:Kanit;-inkscape-font-specification:'Kanit Semi-Bold';letter-spacing:0px;word-spacing:0px;fill:#ffffff;stroke-width:4.16751"
           x="0"
           y="0"
           id="tspan11">NightBit Games</tspan></text></g></g></svg>
